<?xml version="1.0" encoding="utf-8"?>
<!-- Generator: Adobe Illustrator 27.0.0, SVG Export Plug-In . SVG Version: 6.00 Build 0)  -->
<svg version="1.1"
	 id="svg57" xmlns:inkscape="http://www.inkscape.org/namespaces/inkscape" xmlns:svg="http://www.w3.org/2000/svg" xmlns:sodipodi="http://sodipodi.sourceforge.net/DTD/sodipodi-0.dtd"
	 xmlns="http://www.w3.org/2000/svg" xmlns:xlink="http://www.w3.org/1999/xlink" x="0px" y="0px" viewBox="0 0 1294 410.7"
	 style="enable-background:new 0 0 1294 410.7;" xml:space="preserve">
<style type="text/css">
	.st0{fill:#32CFC7;}
	.st1{fill:#25B2AA;}
	.st2{fill:#198F89;}
	.st3{fill:#0E615C;}
	.st4{fill:#383939;}
</style>
<sodipodi:namedview  bordercolor="#666666" borderopacity="1.0" id="namedview59" inkscape:current-layer="g63" inkscape:cx="352.17729" inkscape:cy="205.77216" inkscape:pagecheckerboard="0" inkscape:pageopacity="0.0" inkscape:pageshadow="2" inkscape:window-height="1387" inkscape:window-maximized="1" inkscape:window-width="3440" inkscape:window-x="1512" inkscape:window-y="25" inkscape:zoom="0.99381762" pagecolor="#ffffff" showgrid="false">
	</sodipodi:namedview>
<g id="g63" inkscape:groupmode="layer" inkscape:label="Image">
	<g id="g239">
		<path id="path251" class="st0" d="M240,215.4c-8-2.6-11.1-3.6-36.7-11.4c-7.1-2.2-15.8-4.9-19.2-6c-3.5-1.1-18.3-5.7-33.1-10.3
			c-14.7-4.6-27.4-8.7-28.1-9.2c-1.6-1.1-33.2-49.2-33.2-50.6c0-1.1,9.4-14.1,10.2-14.1c0.3,0,6.9,8.3,14.7,18.4l14.2,18.4l16.7,5.9
			c19.3,6.8,50,17.7,56.9,20.2c2.6,0.9,10.4,3.7,17.1,6.1c6.8,2.4,12.8,4.7,13.3,5c1,0.6,16.3,30.4,15.6,30.3
			C248.3,218,244.5,216.8,240,215.4L240,215.4z M72.3,152.2c0-0.7,0.2-0.8,0.4-0.4c0.2,0.4,0.2,1,0,1.2
			C72.5,153.2,72.3,152.9,72.3,152.2L72.3,152.2z M200.3,144c-9.8-3.9-27.7-11.1-39.8-15.9c-21-8.3-22.2-8.9-24.3-11.4
			c-1.2-1.4-6.4-7-11.4-12.5c-5-5.5-9.2-10.2-9.2-10.5c0-0.3,0.9-1.7,2-3.2c1.1-1.5,4.1-5.6,6.6-9.1l4.6-6.5l5.9,5.3
			c8,7.2,11.7,9.8,16.6,12c2.3,1,5.7,2.5,7.5,3.4c12.5,5.6,26.5,11.8,32.2,14.3c3.6,1.6,7.3,3.5,8.2,4.3c1.4,1.2,19.6,36.4,19,36.8
			C218.2,151.1,210.1,148,200.3,144L200.3,144z M165.5,63.7c-11.4-5.7-15.1-7.8-19-10.7l-1.9-1.4l6.1-8.4c3.4-4.6,6.6-9.1,7.1-10
			l1-1.5l4,8c2.2,4.4,6.6,13,9.7,19c3.1,6,5.5,11,5.2,10.9C177.4,69.6,171.9,66.9,165.5,63.7L165.5,63.7z"/>
		<path id="path249" class="st1" d="M146.1,290.4c0.4-0.2,1-0.2,1.2,0c0.2,0.2-0.2,0.3-0.8,0.3C145.8,290.8,145.6,290.6,146.1,290.4
			z M127.5,287.4c0.4-0.2,1-0.2,1.2,0c0.2,0.2-0.2,0.3-0.8,0.3C127.1,287.8,127,287.6,127.5,287.4L127.5,287.4z M116.7,285.6
			c0.4-0.2,1-0.2,1.2,0c0.2,0.2-0.2,0.3-0.8,0.3C116.3,286,116.2,285.8,116.7,285.6L116.7,285.6z M247.2,259.5
			c-11.1-2.6-26.6-6.3-34.6-8.1c-7.9-1.8-18.9-4.4-24.3-5.7c-5.5-1.3-21.7-5.1-36.1-8.4s-29.7-6.9-34-7.9c-4.3-1-8.2-2.1-8.6-2.5
			c-1.1-0.9-36.7-73.1-36.7-74.4c0-0.6,1.7-3.4,3.7-6.2l3.7-5.1l11.2,19.7c6.2,10.8,13.9,24.4,17.1,30.1c3.2,5.7,6.5,10.8,7.2,11.2
			c0.7,0.5,3.5,1.4,6.1,2.1c55.5,15.1,76.7,20.8,80.9,21.9c31.3,8.4,50.3,13.6,51.7,14.2c1.2,0.5,2.8,3.3,7.4,12.3
			c3.2,6.4,5.8,11.7,5.7,11.6C267.4,264.3,258.3,262.1,247.2,259.5L247.2,259.5z"/>
		<path id="path247" class="st2" d="M147.9,336.7c0.4-0.2,1.1-0.2,1.5,0s0.1,0.3-0.8,0.3C147.8,337,147.5,336.9,147.9,336.7z
			 M135,335.5c0.6-0.2,1.5-0.2,2.1,0c0.6,0.2,0.1,0.3-1.1,0.3C134.9,335.8,134.4,335.7,135,335.5z M123.9,334.3c0.4-0.2,1-0.2,1.2,0
			c0.2,0.2-0.2,0.3-0.8,0.3C123.5,334.6,123.4,334.5,123.9,334.3z M116.6,333.7c0.4-0.2,1.1-0.2,1.5,0c0.4,0.2,0.1,0.3-0.8,0.3
			C116.5,334,116.2,333.9,116.6,333.7z M105.2,332.5c0.4-0.2,1-0.2,1.2,0c0.2,0.2-0.2,0.3-0.8,0.3
			C104.9,332.8,104.8,332.7,105.2,332.5z M92.6,331.3c0.4-0.2,1-0.2,1.2,0c0.2,0.2-0.2,0.3-0.8,0.3
			C92.3,331.6,92.1,331.5,92.6,331.3z M189.4,319.3c0.4-0.2,1-0.2,1.2,0s-0.2,0.3-0.8,0.3C189.1,319.6,188.9,319.5,189.4,319.3
			L189.4,319.3z M165.3,316.3c0.4-0.2,1.1-0.2,1.5,0c0.4,0.2,0.1,0.3-0.8,0.3C165.2,316.6,164.9,316.5,165.3,316.3z M156.3,315.1
			c0.4-0.2,1-0.2,1.2,0s-0.2,0.3-0.8,0.3C156,315.4,155.9,315.3,156.3,315.1z M142.5,313.3c0.4-0.2,1-0.2,1.2,0
			c0.2,0.2-0.2,0.3-0.8,0.3C142.2,313.6,142,313.5,142.5,313.3z M127.5,311.5c0.4-0.2,1-0.2,1.2,0c0.2,0.2-0.2,0.3-0.8,0.3
			C127.1,311.8,127,311.7,127.5,311.5z M117.8,310.3c0.4-0.2,1.1-0.2,1.5,0c0.4,0.2,0.1,0.3-0.8,0.3
			C117.8,310.6,117.4,310.4,117.8,310.3z M205.1,299.9c-31.8-5.1-41.6-6.7-61.6-9.9c-7.3-1.2-18.2-2.9-24.3-3.9
			c-18.7-3-19.5-3.2-20.2-3.7c-0.4-0.3-1.5-2.8-2.5-5.5c-1-2.7-5.4-14.3-9.9-25.7c-4.5-11.4-9-23.2-10.2-26.1
			c-1.2-3-4-10.3-6.3-16.2c-2.3-6-5.5-14.1-7-18c-1.5-4-3.6-9.2-4.6-11.5c-1-2.4-1.8-4.8-1.8-5.4c0-0.6,1.5-3.1,3.3-5.5l3.3-4.5
			l1.6,3.5c1.8,3.9,10.2,23.2,27.5,62.8c6.3,14.4,11.7,26.5,12.2,26.9c0.7,0.8,6.6,2,40.6,8.5c8.8,1.7,19.2,3.7,23.1,4.5
			c12.5,2.5,97.8,19.2,101.4,19.9c1.2,0.2,2.3,0.6,2.3,0.9c0,0.3-0.3,0.5-0.6,0.5c-0.3,0-7.8,3-16.6,6.6
			c-11.1,4.6-16.7,6.6-18.2,6.5C235.3,304.6,221.2,302.4,205.1,299.9L205.1,299.9z"/>
		<path id="path243" class="st3" d="M78.1,367.3c-0.2-0.9-1.1-4.2-1.9-7.3c-0.8-3.1-2.6-9.8-3.9-14.7c-3-11.6-7.3-27.6-8.9-33.4
			c-0.7-2.5-2.2-8.2-3.4-12.6s-3-11.2-4-15c-1-3.8-5.2-19.6-9.3-35.2s-8.6-32.3-9.9-37.1l-2.4-8.9l1.3-1.8c0.7-1,1.5-1.8,1.8-1.8
			c0.3,0,0.8,1.3,1.2,2.9c0.4,1.6,3.8,13.8,7.6,27.2c3.8,13.4,10.1,35.7,14.1,49.6c22.6,79.7,21.2,75,22.8,75.5
			c0.8,0.2,5,0.6,9.3,0.8c11.6,0.6,16.2,1.1,15.2,1.6c-0.7,0.4-20,8.3-27.9,11.4C78.6,368.8,78.4,368.7,78.1,367.3z M142.3,336.2
			c-12.8-1.3-19.9-2-30.1-3c-5.3-0.5-11.2-1.1-13.2-1.3c-2-0.2-5.5-0.5-7.8-0.7l-4.2-0.4l-3.2-10.2c-1.8-5.6-4-12.7-4.9-15.6
			c-0.9-3-4.7-15-8.4-26.7s-7.4-23.4-8.1-25.8c-0.8-2.5-3.7-11.9-6.6-21c-2.9-9.1-5.9-18.6-6.6-21s-2.4-7.6-3.6-11.3
			c-1.2-3.7-2.2-7.3-2.2-7.8c0-0.6,1.2-2.8,2.7-4.8l2.7-3.8l0.7,1.7c0.4,1,1.3,3.6,2.1,6c0.8,2.3,3.1,8.9,5.1,14.7
			c2,5.8,6,17,8.7,24.9c2.8,7.9,6.8,19.6,9,25.8c2.2,6.3,5.3,15.2,6.9,19.8c6.6,19.1,10.2,29.2,10.8,30.3c0.8,1.5-3.4,0.9,44.5,6.9
			c51.9,6.6,59.7,7.6,59.9,7.8c0.2,0.2-20.5,8.8-35.4,14.8C155.9,337.4,154.5,337.4,142.3,336.2L142.3,336.2z"/>
	</g>
</g>
<g>
	<path class="st4" d="M348.8,132v51.8h50.3V132h30.5v134.8h-30.5v-56.4h-50.3v56.4h-30.5V132H348.8z"/>
	<path class="st4" d="M516.2,266.8l-1.8-9.7h-0.6c-6.4,7.8-16.4,11.9-28,11.9c-19.9,0-31.6-14.3-31.6-29.9
		c0-25.5,22.8-37.6,57.4-37.5v-1.2c0-5.2-2.8-12.6-17.9-12.6c-10,0-20.5,3.4-27,7.3l-5.6-19.5c6.8-3.9,20.2-8.8,38-8.8
		c32.6,0,42.9,19.3,42.9,42.2v34.1c0,9.3,0.5,18.2,1.6,23.7H516.2z M512.5,220.6c-16-0.1-28.4,3.8-28.4,15.4
		c0,7.9,5.2,11.7,12.1,11.7c7.4,0,13.7-5,15.7-11.2c0.5-1.6,0.6-3.5,0.6-5.2V220.6z"/>
	<path class="st4" d="M571,201.9c0-12.9-0.4-23.7-0.8-32.9h26.4l1.4,13.7h0.4c7.3-10.3,18.4-15.9,32.6-15.9
		c21.4,0,40.7,18.6,40.7,49.9c0,35.7-22.7,52.4-44.5,52.4c-11.7,0-21-4.7-25.4-11.2h-0.4v48.6H571V201.9z M601.5,224.9
		c0,2.3,0.2,4.4,0.6,6.3c2,8.1,9,14.4,17.8,14.4c13.1,0,21-11.1,21-27.7c0-15.6-7-27.5-20.5-27.5c-8.6,0-16.4,6.5-18.2,15.4
		c-0.5,1.7-0.7,3.6-0.7,5.4V224.9z"/>
	<path class="st4" d="M695.7,124.8h30.5v142h-30.5V124.8z"/>
	<path class="st4" d="M852.2,216.9c0,35.8-25.3,52.1-51.6,52.1c-28.5,0-50.5-18.8-50.5-50.4c0-31.6,20.8-51.9,52.3-51.9
		C832.3,166.8,852.2,187.4,852.2,216.9z M781.4,217.9c0,16.7,7.1,29.4,20,29.4c11.9,0,19.4-11.9,19.4-29.5
		c0-14.4-5.6-29.3-19.3-29.3C787,188.5,781.4,203.4,781.4,217.9z"/>
	<path class="st4" d="M872.3,266.8v-18.4l16.7-15.1c28.5-25.5,42.3-40.1,42.5-55.3c0-10.6-6.2-19-21.3-19c-11.2,0-21,5.6-27.8,10.7
		l-8.5-21.7c9.7-7.4,25-13.4,42.5-13.4c29.5,0,45.6,17.2,45.6,40.7c0,21.8-15.6,39.3-34.6,56l-12,10v0.4h49.2v25.1H872.3z"/>
	<path class="st4" d="M993.1,133.9c11.2-1.8,25.8-2.9,41.1-2.9c25.6,0,42.3,4.7,55.2,14.5c14,10.5,22.8,26.9,22.8,50.7
		c0,25.8-9.3,43.7-22.3,54.6c-14.2,11.8-35.9,17.5-62.2,17.5c-15.8,0-27.1-0.9-34.6-2V133.9z M1023.6,243.9
		c2.7,0.5,6.9,0.5,10.6,0.5c27.6,0.2,45.8-15,45.8-47.2c0.1-28-16.3-42.7-42.5-42.7c-6.7,0-11.1,0.6-13.8,1.2V243.9z"/>
	<path class="st4" d="M1215.5,158.5c-3.5-0.2-7.1-0.1-11.9,0.3c-27,2.2-39,15.9-42.4,31.1h0.6c6.5-6.4,15.5-10.3,27.6-10.3
		c21.8,0,40.2,15.4,40.2,42.5c0,25.8-19.8,46.9-47.9,46.9c-34.7,0-51.6-25.8-51.6-56.7c0-24.5,9-44.9,23-57.9
		c12.9-11.8,29.8-18.2,50.1-19.2c5.6-0.5,9.3-0.3,12.3-0.1L1215.5,158.5z M1198.8,223.7c0-12.1-6.3-22.4-19.3-22.4
		c-8.2,0-15,5-18,11.5c-0.9,1.7-1.3,4.1-1.3,7.7c0.6,13.7,7.2,26.2,21.1,26.2C1192.1,246.7,1198.8,236.9,1198.8,223.7z"/>
</g>
<g>
	<path class="st1" d="M872.3,266.8v-18.4l16.7-15.1c28.4-25.5,42.3-40.1,42.5-55.3c0-10.6-6.2-19-21.3-19c-11.2,0-21,5.6-27.8,10.7
		l-8.5-21.7c9.7-7.4,25-13.4,42.5-13.4c29.5,0,45.6,17.2,45.6,40.7c0,21.8-15.6,39.3-34.6,56l-12,10v0.4h49.2v25.1H872.3z"/>
	<path class="st1" d="M993.2,133.9c11.2-1.8,25.8-2.9,41.1-2.9c25.6,0,42.3,4.7,55.2,14.5c14,10.5,22.8,26.9,22.8,50.7
		c0,25.8-9.3,43.7-22.3,54.6c-14.2,11.8-35.9,17.5-62.2,17.5c-15.8,0-27.1-0.9-34.6-2V133.9z M1023.6,243.9
		c2.7,0.5,6.9,0.5,10.6,0.5c27.6,0.2,45.8-15,45.8-47.2c0.1-28-16.3-42.7-42.5-42.7c-6.7,0-11.1,0.6-13.8,1.2V243.9z"/>
	<path class="st1" d="M1215.5,158.5c-3.5-0.2-7.1-0.1-11.9,0.3c-27,2.2-39,15.9-42.4,31.1h0.6c6.5-6.4,15.5-10.3,27.6-10.3
		c21.8,0,40.2,15.4,40.2,42.5c0,25.8-19.8,46.9-47.9,46.9c-34.7,0-51.6-25.8-51.6-56.7c0-24.5,9-44.9,23-57.9
		c12.9-11.8,29.8-18.2,50.1-19.2c5.6-0.5,9.3-0.3,12.3-0.1L1215.5,158.5z M1198.8,223.7c0-12.1-6.3-22.4-19.3-22.4
		c-8.2,0-15,5-18,11.5c-0.9,1.7-1.3,4.1-1.3,7.7c0.6,13.7,7.2,26.2,21.1,26.2C1192.1,246.7,1198.8,236.9,1198.8,223.7z"/>
</g>
</svg>
